<?xml version="1.0" encoding="utf-8"?>
<!-- Generator: Adobe Illustrator 16.0.0, SVG Export Plug-In . SVG Version: 6.00 Build 0)  -->
<!DOCTYPE svg PUBLIC "-//W3C//DTD SVG 1.1//EN" "http://www.w3.org/Graphics/SVG/1.1/DTD/svg11.dtd">
<svg version="1.1" xmlns="http://www.w3.org/2000/svg" xmlns:xlink="http://www.w3.org/1999/xlink" x="0px" y="0px" width="50px"
	 height="50px"  enable-background="new 0 0 50 50" xml:space="preserve">
<g id="z_by_a_font_copy" display="none">
	<text transform="matrix(1 0 0 1 7.1855 35.1602)" display="inline" fill="#000007" font-family="'Brook23'" font-size="26.4156">Z</text>
	<text transform="matrix(1 0 0 1 24.7471 34.1973)" display="inline" fill="#000007" font-family="'Brook23'" font-size="26.4156">A</text>
	
		<text transform="matrix(1 0 0 1 24.1733 14.8027)" display="inline" fill="#000007" font-family="'Brook23'" font-size="8.0714" letter-spacing="-1">by</text>
</g>
<g id="Layer_2" display="none">
	
		<image display="inline" overflow="visible" width="72" height="72" xlink:href="DeAndre-logo.png"  transform="matrix(0.7413 0 0 0.7413 -1.0625 -1.25)">
	</image>
</g>
<g id="Layer_5">
	<rect fill="none" width="50" height="50"/>
</g>
<g id="DeAndre-logo">
	<g>
		<path fill="#231F20" d="M34.084,19H34.02c-0.43,1-0.881,2-1.354,4h0.064l3.354-0.678C35.172,20.052,34.506,19,34.084,19z"/>
		<path fill="#231F20" d="M25,0.917C11.699,0.917,0.917,11.699,0.917,25S11.699,49.083,25,49.083S49.083,38.301,49.083,25
			S38.301,0.917,25,0.917z M28,15.643v0.051C28,15.81,27.83,16,27.83,16h0.016c0.044,0,0.066-0.034,0.066-0.013
			c0,0.05-0.062,0.306-0.185,0.421C27.822,16.688,27.999,17,28.259,17h0.083c0.447,0,0.874-0.699,1.281-1.705
			c0.076-0.242,0.169-0.705,0.279-1.193c-0.554,0-1.107-0.332-1.659-0.897c-0.055-0.073-0.082-0.046-0.082-0.196
			c0-0.305,0.183-1.008,0.548-1.008h0.031c0.536,0,1.086,0.336,1.304,0.735C29.899,12.844,30,12.791,30,12.904v0.02
			c0-0.158,0.493-0.379,0.493-0.666l-0.138-0.051c0-0.192,0.298-0.335,0.598-0.43C31.339,12.063,31,12.368,32,12.691v0.016
			c0,0.155-0.48,0.925-1.059,2.31c-0.233,0.636-0.745,1.271-1.341,1.908c-0.213,0.21-0.576,0.315-0.994,0.315
			c-0.354,0-0.679-0.2-1.144-0.599C27.098,16.27,27,16.009,27,15.859v-0.051c0-0.231,0.03-0.554,0.309-0.619L27.364,15h0.331
			c0.032,0,0.054,0.219,0.067,0.308c0.142,0,0.229,0.118,0.264,0.181l-0.054,0.095L28,15.643z M26,10.933v0.012l-0.039-0.047
			L26,10.933z M24.472,12.242c0.171-0.94,0.235-1.739,0.235-1.97c0.058-0.04,0.077-0.271,0.1-0.271h0.024l0.008-0.012L24.851,10
			h0.012h0.205h0.023c0.431,0,0.646,0.264,0.646,0.342l-0.023,0.217l0.181,0.273C25.818,10.914,25.587,12,25.505,12h0.008
			c0.116,0,0.217,0,0.304,0h0.114c0.505,0,1.045,0.317,1.479,0.596C27.755,12.854,28,13.372,28,13.794v0.012
			c0,0.489-0.454,0.696-1.218,1.095C26.265,15.125,25.809,15,25.556,15h-0.177l-0.241,0.205c-0.139,0.158-0.323,0.355-0.552,0.355
			c-0.109,0-0.264-0.006-0.586-0.104l0.109-0.921L24.472,12.242z M21.927,29.407c-0.069,0.258-0.757,0.701-2.063,1.329
			c-0.026,0.095-0.587,0.421-1.748,0.979c0,0.275-0.116,0.521-1.116,0.735v-0.064c-4,2.391-5.987,3.586-7.165,3.586
			c-1.96-0.163-2.862-0.408-2.862-0.735L7,35.005V34.94c0-1.006,1.393-2.932,3.697-5.778c2.055-2.828,3.599-5.009,4.725-6.315
			L17.735,20h-0.052c-3.818,2-6.101,3-6.849,3h-0.684C9.171,23,9,22.773,8,22.042v-0.296c1-0.232,2.25-0.926,5.5-2.241L21.411,16
			h0.181c0.92,0,1.38,0.616,1.38,1.08c0.137,0,0.232,0.042,0.284,0.205l-0.296,0.211c0.112,0,0.04,0.062,0.04,0.225v0.129l-2,2.851
			v0.064l0.089,0.064c-0.43,0.25-0.948,0.817-1.593,1.703c-0.077,0-0.627,0.464-1.47,1.393L18,23.99v0.116
			c0,0.069-0.055,0.15-0.364,0.245l-0.544,0.49L17,24.906v0.052c-1,1.488-1.741,2.382-2.103,2.683c0,0.111-0.019,0.275-0.251,0.49
			c0,0.181-0.279,0.524-0.932,1.031c-0.112,0.302-0.526,0.907-1.292,1.819c0,0.086-0.237,0.204-0.736,0.806L11.467,32h0.064
			c7.885-4,12.099-6,12.64-6h0.064c0.129,0,0.262,0.344,0.4,0.91c0,0.594-0.555,1.294-1.664,2.042
			C22.559,29.236,22.211,29.407,21.927,29.407z M42.309,31.771C42.051,32.002,41.802,32,41.63,32h-0.168l-0.064-0.09L41.05,32
			h-0.129c-0.654,0-1.759-1.701-3.315-5.389c-0.378-0.895-0.632-1.352-0.761-1.515c-3.491,0.671-5.236,1.218-5.236,1.57
			c-0.422,0.645-1.814,3.291-4.18,7.899l-0.116,0.306l-0.297-0.061c-0.387,0.473-0.7,0.712-0.941,0.712l-0.528-0.378L25.494,35
			H25.43l-0.296,0.146l-0.599,0.215C24.379,35.311,24,35.311,24,35.164v-0.167C25,33.415,26.217,31,28.022,27h-0.181
			c-0.628,0-0.941-0.258-0.941-1.006C27.012,25.254,27.248,25,27.609,25h0.941c0.438,0,0.869-0.971,1.29-2.502l2.36-6.049
			c0.146,0,0.361-0.443,0.646-1.226l0.167-0.206c2.047,0.628,3.07,1.264,3.07,1.935c0,0.215,1.658,3.502,4.908,9.874
			C42.309,29.097,43,30.599,43,31.347v0.361C43,31.785,42.746,31.728,42.309,31.771z"/>
		<path fill="#231F20" d="M26.304,14.543c0.39-0.3,0.696-0.608,0.696-0.926v-0.008c0-0.344-0.255-0.578-0.539-0.702
			c-0.061-0.013-0.193-0.02-0.285-0.02c-0.241,0-0.51,0.181-0.749,0.543c-0.084,0.14-0.244,0.441-0.334,0.907L25,14.599v0.02
			c0,0.121,0.15,0.246,0.219,0.375C25.597,14.864,26.036,14.714,26.304,14.543z"/>
	</g>
</g>
</svg>
