<?xml version="1.0" encoding="utf-8"?>
<!-- Generator: Adobe Illustrator 16.0.0, SVG Export Plug-In . SVG Version: 6.00 Build 0)  -->
<!DOCTYPE svg PUBLIC "-//W3C//DTD SVG 1.1//EN" "http://www.w3.org/Graphics/SVG/1.1/DTD/svg11.dtd">
<svg version="1.1" id="Layer_1" xmlns="http://www.w3.org/2000/svg" xmlns:xlink="http://www.w3.org/1999/xlink" x="0px" y="0px"
	 width="72px" height="72px" viewBox="0 0 72 72" enable-background="new 0 0 72 72" xml:space="preserve">
<g>
	<path d="M53.588,5.535c-5.34-3.084-11.422-4.714-17.589-4.714c-6.166,0-12.249,1.63-17.589,4.714
		C7.561,11.798,0.821,23.473,0.821,36c0,12.529,6.74,24.202,17.589,30.465c5.34,3.083,11.423,4.713,17.589,4.713
		c6.167,0,12.249-1.63,17.589-4.713C64.438,60.202,71.179,48.529,71.179,36C71.178,23.473,64.438,11.798,53.588,5.535z
		 M51.445,62.753c-4.689,2.708-10.031,4.14-15.446,4.14c-5.415,0-10.756-1.432-15.445-4.14C11.027,57.254,5.108,47.002,5.108,36
		c0-11.001,5.919-21.252,15.446-26.753c4.689-2.708,10.03-4.139,15.445-4.139c5.415,0,10.757,1.431,15.446,4.139
		C60.973,14.748,66.891,25,66.891,36C66.891,47.002,60.973,57.254,51.445,62.753z"/>
	<path d="M31.291,44.953c-1.204,0.027-4.668,2.259-4.986,2.745c-0.267,0.408-0.779,1.175-0.357,1.354
		c5.015,2.117,10.577-0.738,10.577-0.738c1.018-1.824,1.723-3.956,2.146-5.771c1.436-6.161,3.418-8.548,5.158-10.692
		c0.244-0.302-0.262-1.693-0.751-2.008c-0.761-0.489-1.514-0.898-1.913-0.938c-1.038-0.104-1.357-0.689-1.821-1.653
		c-0.282-0.584-0.171-1.469-1.233-1.36c-1.008,0.103-1.459,0.824-1.467,1.643c-0.029,2.898-1.246,4.988-3.804,6.379
		c-0.512,0.278-0.791,0.672-1.027,1.245c-0.396,0.962-0.576,2.792-0.374,3.095c0.213,0.318,2.127,0.951,3.514,0.951
		c-1.159,0.447-3.239-0.047-3.514,0.133c-0.276,0.18-0.228,1.785-0.075,1.949c0.28,0.298,2.104,0.742,3.392,0.693
		c-1.288,0.743-3.07-0.203-3.392,0.365c-0.094,0.379-0.27,1.494-0.074,1.738c0.37,0.459,1.979,0.67,2.97,0.77
		C33.22,45.398,31.657,45.006,31.291,44.953z M34.495,34.073c-0.7-0.188-1.28,0.476-1.522,0.426c0.2-0.085,0.71-0.375,1.385-0.887
		c2.218-1.683,2.59-3.086,2.662-4.514c0.06-1.174,0.387-1.89,0.45-2.61c-0.063,0.72,0.091,1.627,0.297,2.188
		c0.226,0.617,0.296,1.237,0.368,1.836C38.432,33.001,37.072,34.761,34.495,34.073z"/>
	<path d="M44.655,32.852c-1.444,1.277-1.998,2.259-2.988,3.939c-0.14,0.238-0.295,0.532-0.458,0.867
		c-0.588,1.344-1.145,2.99-1.635,5.096c-0.518,2.215-1.312,4.35-2.24,6.012l-0.137,0.244l-0.249,0.127
		c-0.175,0.092-3.225,1.627-6.92,1.627c-1.3,0-2.68-0.193-4.042-0.704c0.265,0.493,0.721,1.381,1.131,1.435
		c1.236,0.164,6.364,0.351,7.812-0.085c3.569-1.07,3.821-3.056,4.437-4.962c0.314-0.969,0.629-1.778,1.066-2.697
		c1.746-3.649,2.701-5.955,5.387-8.545c0.679-0.655,0.564-1.706,0.134-2.092C45.371,32.592,44.932,32.607,44.655,32.852z"/>
	<path d="M29.153,32.595c0.559,0.889,1.604,0.25,2.071-0.34c0.728-0.921,0.974-2.021,0.577-2.721
		c-0.191-0.333-0.526-0.643-0.821-0.974c-2.021-2.267-4.106-4.587-6.076-6.804c0.781,0.012,1.813,0.043,2.722,0.577
		c0.913,0.535,1.328,1.278,1.64,1.947c-0.265-0.893-0.524-1.875-1.607-2.518c-1.518-0.901-2.996-0.35-4.477-1.178
		c2.562,2.824,5.046,5.664,7.595,8.491C29.525,29.415,28.546,31.632,29.153,32.595z M31.462,30.727
		c-0.003,0.624-0.581,2.279-1.478,1.782c-0.261-0.146-0.387-0.446-0.444-0.657c-0.128-0.48-0.083-1.006,0.214-1.577
		c0.262-0.506,0.685-0.932,1.128-0.743C31.399,29.751,31.462,30.341,31.462,30.727z"/>
	<path d="M34.04,23.278c0.958-0.272,1.567-1.088,1.34-1.955l0.007-0.002l-1.798-6.24l5.076-2.222l1.533,5.312
		c-0.408-0.215-0.936-0.275-1.463-0.125c-0.969,0.275-1.568,1.153-1.34,1.961c0.23,0.809,1.205,1.256,2.176,0.981
		c0.957-0.271,1.555-1.127,1.352-1.916l0.021-0.006l-0.018-0.058v-0.003l-0.001-0.003l-2.321-7.992l-0.039-0.132l-5.944,2.521
		l0.279,0.946l1.778,6.153c-0.409-0.215-0.936-0.273-1.462-0.124c-0.969,0.274-1.569,1.153-1.34,1.961
		C32.105,23.142,33.07,23.553,34.04,23.278z M33.327,14.183l5.086-2.186l0.112,0.389l-5.077,2.222L33.327,14.183z"/>
	<path d="M47.454,27.539l-0.122,0.221l0.224,0.135c0,0,0.075,0.033,0.194,0.1v0c0.395,0.22,1.162,0.606,1.893,0.682
		c1.125,0.117,2.134-0.55,2.255-1.493c0.076-0.595-0.272-1.201-0.887-1.542c-0.347-0.193-0.734-0.279-1.12-0.246
		c-0.285,0.024-0.554,0.123-0.793,0.251l3.479-6.179l-0.449-0.25l-4.599,8.19C47.496,27.467,47.48,27.493,47.454,27.539z
		 M49.938,25.947c0.271-0.024,0.558,0.039,0.805,0.177c0.416,0.232,0.656,0.622,0.609,0.991c-0.084,0.65-0.826,1.108-1.656,1.022
		c-0.61-0.063-1.296-0.398-1.62-0.574C48.703,26.503,49.282,26.001,49.938,25.947z"/>
	<path d="M47.32,14.469l0.001-0.004v-0.003l0.001-0.003l0.808-5.506c-0.177-0.08-0.351-0.163-0.528-0.239l-0.652,4.466
		c-0.348-0.447-0.904-0.79-1.568-0.89c-1.223-0.184-2.338,0.488-2.492,1.507c-0.154,1.02,0.715,1.983,1.938,2.167
		c1.211,0.183,2.302-0.372,2.49-1.497L47.32,14.469z"/>
	<polygon points="13.993,46.281 14.791,45.976 13.402,42.355 12.604,42.661 13.603,45.266 8.177,44.187 7.379,44.492 8.958,48.608 
		9.756,48.302 8.568,45.202 	"/>
	<path d="M17.767,50.762l-0.494-0.753l-3.508,2.301c-0.828,0.544-1.604,0.115-2.033-0.54c-0.43-0.654-0.508-1.529,0.32-2.072
		l3.508-2.301l-0.493-0.753l-3.508,2.301c-1.31,0.859-1.219,2.263-0.542,3.295c0.676,1.031,1.933,1.682,3.242,0.823L17.767,50.762z"
		/>
	<polygon points="21.462,54.321 16.575,56.978 18.829,51.893 18.095,51.215 13.761,55.912 14.422,56.522 17.383,53.313 
		16.47,54.994 15.408,57.432 16.215,58.176 18.56,56.923 20.161,55.877 17.201,59.086 17.863,59.696 22.196,54.999 	"/>
	<path d="M24.121,61.423c0.314-0.557,0.279-1.207-0.043-1.752c0.538-0.037,1.066-0.349,1.328-0.812
		c0.5-0.885,0.298-1.899-0.799-2.52l-1.873-1.06l-3.075,5.438c0.406,0.343,0.924,0.761,1.488,1.08
		C22.22,62.405,23.434,62.638,24.121,61.423z M23.346,60.964c-0.39,0.689-1.128,0.458-1.771,0.095
		c-0.298-0.168-0.543-0.338-0.775-0.531l0.944-1.669l1.144,0.646C23.492,59.847,23.621,60.479,23.346,60.964z M23.247,58.726
		l-1.082-0.611l0.931-1.646l1.089,0.616c0.619,0.351,0.697,0.87,0.436,1.332C24.364,58.871,23.874,59.08,23.247,58.726z"/>
	<path d="M28.028,57.902l-4.252,5.31l0.93,0.314l1.223-1.534l2.132,0.723l0.039,1.962l0.93,0.314l-0.148-6.8L28.028,57.902z
		 M26.494,61.28l1.499-1.869l0.045,2.393L26.494,61.28z"/>
	<path d="M37.198,62.459c0.452-0.295,0.761-0.825,0.765-1.356c0.005-1.019-0.666-1.806-1.928-1.812l-2.153-0.012l-0.033,6.25
		c0.521,0.103,1.179,0.214,1.828,0.218c1.233,0.006,2.407-0.384,2.415-1.779C38.095,63.328,37.746,62.776,37.198,62.459z
		 M34.778,60.14l1.253,0.007c0.711,0.003,1.033,0.419,1.03,0.951c-0.003,0.522-0.329,0.944-1.05,0.939l-1.243-0.006L34.778,60.14z
		 M35.69,64.891c-0.342-0.001-0.64-0.03-0.937-0.085l0.011-1.919l1.315,0.007c0.692,0.004,1.113,0.493,1.11,1.051
		C37.186,64.737,36.429,64.896,35.69,64.891z"/>
	<polygon points="42.107,58.551 41.012,61.669 38.835,59.182 37.827,59.377 40.758,62.728 41.241,65.229 42.125,65.059 
		41.643,62.557 43.114,58.355 	"/>
	<path d="M47.273,56.407l1.174,6.697l0.851-0.489l-0.343-1.932l1.95-1.122l1.498,1.268l0.851-0.489l-5.201-4.381L47.273,56.407z
		 M50.206,58.978l-1.412,0.812l-0.413-2.359L50.206,58.978z"/>
	<polygon points="52.547,52.494 55.815,56.176 54.594,55.612 50.602,54.221 49.849,54.89 54.09,59.668 54.763,59.071 51.584,55.489 
		52.803,56.034 56.668,57.38 57.462,56.676 53.221,51.896 	"/>
	<path d="M59.045,49.562c-1.749-1.267-3.306-1.128-4.53,0.562c-0.265,0.364-0.573,0.885-0.809,1.393l5.093,3.69l1.209-1.669
		C61.064,52.081,60.399,50.544,59.045,49.562z M59.316,53.036l-0.682,0.94l-3.789-2.745c0.119-0.226,0.242-0.426,0.368-0.601
		c0.893-1.231,2.021-1.27,3.303-0.34C59.486,50.993,60.019,52.067,59.316,53.036z"/>
	<path d="M56.686,47.416l5.676,2.53l0.366-0.82l-2.341-1.044l0.322-0.724c0.242-0.541,0.456-0.712,0.932-0.696l2.16,0.058
		l0.396-0.888l-2.56-0.067c-0.213-0.007-0.413,0.022-0.58,0.065c-0.051-0.683-0.443-1.192-1.059-1.467
		c-1.355-0.604-2.287,0.182-2.855,1.454C56.93,46.294,56.773,46.845,56.686,47.416z M57.92,46.174
		c0.329-0.739,0.832-1.381,1.694-0.997c0.575,0.257,0.765,0.824,0.406,1.629l-0.414,0.928l-1.93-0.86
		C57.739,46.645,57.816,46.403,57.92,46.174z"/>
	<polygon points="65.502,40.541 64.669,40.351 63.98,43.36 62.111,42.934 62.679,40.45 61.846,40.26 61.278,42.743 59.418,42.317 
		60.078,39.431 59.244,39.24 58.384,43.005 64.613,44.429 	"/>
</g>
</svg>
