<?xml version="1.0" encoding="utf-8"?>
<!-- Generator: Adobe Illustrator 16.0.0, SVG Export Plug-In . SVG Version: 6.00 Build 0)  -->
<!DOCTYPE svg PUBLIC "-//W3C//DTD SVG 1.1//EN" "http://www.w3.org/Graphics/SVG/1.1/DTD/svg11.dtd">
<svg version="1.1" id="Layer_1" xmlns="http://www.w3.org/2000/svg" xmlns:xlink="http://www.w3.org/1999/xlink" x="0px" y="0px"
	 width="72px" height="72px" enable-background="new 0 0 72 72" xml:space="preserve">
<g>
	<path id="XMLID_2555_" fill="#43BDA2" d="M20.554,62.753C11.027,57.254,5.108,47.002,5.108,36l0,0H0.821l0,0
		c0,12.529,6.74,24.202,17.589,30.465c5.34,3.083,11.423,4.713,17.589,4.713v-4.286C30.584,66.893,25.243,65.461,20.554,62.753z"/>
	<path id="XMLID_2556_" fill="#66C5B1" d="M35.999,5.109c5.415,0,10.757,1.431,15.446,4.139C60.973,14.748,66.891,25,66.891,36
		h4.288c-0.001-12.528-6.74-24.202-17.591-30.465c-5.34-3.084-11.422-4.714-17.589-4.714l0,0V5.109L35.999,5.109z"/>
	<path id="XMLID_2559_" fill="#1EAF92" d="M20.554,9.248c4.689-2.708,10.03-4.139,15.445-4.139V0.821
		c-6.166,0-12.249,1.63-17.589,4.714C7.561,11.798,0.821,23.473,0.821,36h4.287C5.108,25,11.027,14.748,20.554,9.248z"/>
	<path id="XMLID_2562_" fill="#267F6E" d="M71.179,36L71.179,36h-4.288l0,0c0,11.001-5.918,21.253-15.445,26.752
		c-4.689,2.708-10.031,4.14-15.446,4.14v4.286c6.167,0,12.249-1.63,17.589-4.713C64.438,60.202,71.179,48.529,71.179,36z"/>
</g>
<g>
	<path fill="#267F6E" d="M25.948,49.053c5.015,2.117,10.577-0.738,10.577-0.738c1.018-1.824,1.723-3.956,2.146-5.771
		c1.436-6.161,3.418-8.548,5.158-10.692c0.244-0.302-0.262-1.693-0.751-2.008c-0.761-0.489-1.514-0.898-1.913-0.938
		c-1.038-0.104-1.357-0.689-1.821-1.653c-0.282-0.584-0.171-1.469-1.233-1.36c-1.008,0.103-1.459,0.824-1.467,1.643
		c-0.029,2.898-1.246,4.988-3.804,6.379c-0.512,0.278-0.791,0.672-1.027,1.245c-0.396,0.962-0.576,2.792-0.374,3.095
		c0.213,0.318,2.127,0.951,3.514,0.951c-1.159,0.447-3.239-0.047-3.514,0.133c-0.276,0.18-0.228,1.785-0.075,1.949
		c0.28,0.298,2.104,0.742,3.392,0.693c-1.288,0.743-3.07-0.203-3.392,0.365c-0.094,0.379-0.27,1.494-0.074,1.738
		c0.37,0.459,1.979,0.67,2.97,0.77c-1.041,0.545-2.604,0.152-2.97,0.1c-1.204,0.027-4.668,2.259-4.986,2.745
		C26.038,48.106,25.526,48.873,25.948,49.053z M34.495,34.073c-0.7-0.188-1.28,0.476-1.522,0.426c0.2-0.085,0.71-0.375,1.385-0.887
		c2.218-1.683,2.59-3.086,2.662-4.514c0.06-1.174,0.387-1.89,0.45-2.61c-0.063,0.72,0.091,1.627,0.297,2.188
		c0.226,0.617,0.296,1.237,0.368,1.836C38.432,33.001,37.072,34.761,34.495,34.073z"/>
	<path fill="#267F6E" d="M45.952,33.113c-0.581-0.521-1.021-0.505-1.297-0.261c-1.444,1.277-1.998,2.259-2.988,3.939
		c-0.14,0.238-0.295,0.532-0.458,0.867c-0.588,1.344-1.145,2.99-1.635,5.096c-0.518,2.215-1.312,4.35-2.24,6.012l-0.137,0.244
		l-0.249,0.127c-0.175,0.092-3.225,1.627-6.92,1.627c-1.3,0-2.68-0.193-4.042-0.704c0.265,0.493,0.721,1.381,1.131,1.435
		c1.236,0.164,6.364,0.351,7.812-0.085c3.569-1.07,3.821-3.056,4.437-4.962c0.314-0.969,0.629-1.778,1.066-2.697
		c1.746-3.649,2.701-5.955,5.387-8.545C46.497,34.55,46.383,33.499,45.952,33.113z"/>
	<g>
		<path fill="#43BDA2" d="M30.98,28.56c-2.021-2.267-4.106-4.587-6.076-6.804c0.781,0.012,1.813,0.043,2.722,0.577
			c0.913,0.535,1.328,1.278,1.64,1.947c-0.265-0.893-0.524-1.875-1.607-2.518c-1.518-0.901-2.996-0.35-4.477-1.178
			c2.562,2.824,5.046,5.664,7.595,8.491c-1.252,0.34-2.231,2.558-1.624,3.52c0.559,0.889,1.604,0.25,2.071-0.34
			c0.728-0.921,0.974-2.021,0.577-2.721C31.61,29.201,31.275,28.892,30.98,28.56z M29.984,32.509
			c-0.261-0.146-0.387-0.446-0.444-0.657c-0.128-0.48-0.083-1.006,0.214-1.577c0.262-0.506,0.685-0.932,1.128-0.743
			c0.517,0.219,0.58,0.809,0.58,1.194C31.459,31.351,30.882,33.006,29.984,32.509z"/>
		<path fill="#1EAF92" d="M40.943,19.066l-0.018-0.058v-0.003l-0.001-0.003l-2.321-7.992l0,0l-0.039-0.132l-5.944,2.521l0.279,0.946
			l1.778,6.153c-0.409-0.215-0.936-0.273-1.462-0.124c-0.969,0.274-1.569,1.153-1.34,1.961c0.23,0.807,1.195,1.218,2.165,0.943
			c0.958-0.272,1.567-1.088,1.34-1.955l0.007-0.002l-1.798-6.24l5.076-2.222l1.533,5.312c-0.408-0.215-0.936-0.275-1.463-0.125
			c-0.969,0.275-1.568,1.153-1.34,1.961c0.23,0.809,1.205,1.256,2.176,0.981c0.957-0.271,1.555-1.127,1.352-1.916L40.943,19.066z
			 M33.449,14.608l-0.122-0.425l5.086-2.186l0.112,0.389L33.449,14.608z"/>
		<polygon fill="#1EAF92" points="34.367,18.556 34.379,18.558 34.373,18.538 34.357,18.542 34.36,18.553 		"/>
		<path fill="#267F6E" d="M51.011,25.642c-0.347-0.193-0.734-0.279-1.12-0.246c-0.285,0.024-0.554,0.123-0.793,0.251l3.479-6.179
			l-0.449-0.25l-4.599,8.19c-0.032,0.059-0.048,0.084-0.074,0.13l-0.122,0.221l0.224,0.135c0,0,0.075,0.033,0.194,0.1v0
			c0.395,0.22,1.162,0.606,1.893,0.682c1.125,0.117,2.134-0.55,2.255-1.493C51.974,26.589,51.625,25.984,51.011,25.642z
			 M51.352,27.114c-0.084,0.65-0.826,1.108-1.656,1.022c-0.61-0.063-1.296-0.398-1.62-0.574c0.628-1.06,1.207-1.562,1.862-1.616
			c0.271-0.024,0.558,0.039,0.805,0.177C51.158,26.356,51.398,26.745,51.352,27.114z"/>
	</g>
	<path fill="#66C5B1" d="M47.602,8.714l-0.652,4.466c-0.348-0.447-0.904-0.79-1.568-0.89c-1.223-0.184-2.338,0.488-2.492,1.507
		c-0.154,1.02,0.715,1.983,1.938,2.167c1.211,0.183,2.302-0.372,2.49-1.497l0.004,0.001l0.001-0.004v-0.003l0.001-0.003l0.808-5.506
		C47.953,8.874,47.779,8.791,47.602,8.714z"/>
</g>
<g>
	<path fill="#1EAF92" d="M13.603,45.266l-0.999-2.604l0.798-0.306l1.389,3.62l-0.798,0.306l-5.425-1.079l1.188,3.1l-0.798,0.307
		l-1.579-4.116l0.798-0.306L13.603,45.266z"/>
	<path fill="#1EAF92" d="M14.258,53.062c-1.31,0.858-2.566,0.208-3.242-0.823c-0.677-1.032-0.768-2.436,0.542-3.295l3.508-2.301
		l0.493,0.753l-3.508,2.301c-0.828,0.543-0.75,1.418-0.32,2.072c0.429,0.655,1.205,1.084,2.033,0.54l3.508-2.301l0.494,0.753
		L14.258,53.062z"/>
	<path fill="#1EAF92" d="M15.408,57.432l1.062-2.438l0.913-1.681l-2.96,3.209l-0.661-0.61l4.333-4.697l0.734,0.678l-2.254,5.085
		l4.887-2.656l0.734,0.678l-4.333,4.697l-0.662-0.61l2.96-3.209l-1.601,1.046l-2.344,1.253L15.408,57.432z"/>
	<path fill="#1EAF92" d="M24.606,56.34c1.097,0.62,1.299,1.635,0.799,2.52c-0.262,0.463-0.79,0.774-1.328,0.812
		c0.323,0.545,0.358,1.195,0.043,1.752c-0.687,1.215-1.901,0.982-2.975,0.376c-0.564-0.319-1.083-0.737-1.488-1.08l3.075-5.438
		L24.606,56.34z M21.745,58.858L20.8,60.527c0.232,0.193,0.478,0.363,0.775,0.531c0.643,0.363,1.38,0.595,1.771-0.095
		c0.274-0.485,0.146-1.117-0.458-1.459L21.745,58.858z M22.166,58.114l1.082,0.611c0.627,0.354,1.117,0.146,1.374-0.31
		c0.262-0.462,0.184-0.981-0.436-1.332l-1.089-0.616L22.166,58.114z"/>
	<path fill="#1EAF92" d="M23.776,63.212l4.252-5.31l0.853,0.289l0.148,6.8l-0.93-0.314l-0.039-1.962l-2.132-0.723l-1.223,1.534
		L23.776,63.212z M27.992,59.411l-1.499,1.869l1.544,0.523L27.992,59.411z"/>
	<path fill="#1EAF92" d="M36.035,59.291c1.262,0.006,1.933,0.793,1.928,1.812c-0.004,0.531-0.312,1.062-0.765,1.356
		c0.548,0.317,0.896,0.869,0.894,1.509c-0.008,1.396-1.182,1.785-2.415,1.779c-0.648-0.004-1.307-0.115-1.828-0.218l0.033-6.25
		L36.035,59.291z M34.765,62.887l-0.011,1.919c0.297,0.055,0.595,0.084,0.937,0.085c0.738,0.005,1.495-0.153,1.5-0.946
		c0.003-0.558-0.418-1.047-1.11-1.051L34.765,62.887z M34.769,62.031l1.243,0.006c0.721,0.005,1.047-0.417,1.05-0.939
		c0.003-0.532-0.319-0.948-1.03-0.951l-1.253-0.007L34.769,62.031z"/>
	<path fill="#1EAF92" d="M41.241,65.229l-0.483-2.502l-2.931-3.351l1.008-0.195l2.177,2.487l1.096-3.118l1.007-0.195l-1.472,4.201
		l0.482,2.502L41.241,65.229z"/>
	<path fill="#1EAF92" d="M48.447,63.104l-1.174-6.697l0.779-0.448l5.201,4.381l-0.851,0.489l-1.498-1.268l-1.95,1.122l0.343,1.932
		L48.447,63.104z M48.381,57.431l0.413,2.359l1.412-0.812L48.381,57.431z"/>
	<path fill="#1EAF92" d="M52.803,56.034l-1.219-0.545l3.179,3.582l-0.673,0.597l-4.241-4.778l0.753-0.669l3.992,1.392l1.222,0.563
		l-3.269-3.682l0.674-0.598l4.241,4.779l-0.794,0.704L52.803,56.034z"/>
	<path fill="#1EAF92" d="M58.799,55.207l-5.093-3.69c0.235-0.508,0.544-1.028,0.809-1.393c1.225-1.69,2.781-1.829,4.53-0.562
		c1.354,0.982,2.02,2.52,0.963,3.977L58.799,55.207z M58.635,53.977l0.682-0.94c0.702-0.969,0.17-2.043-0.8-2.745
		c-1.282-0.93-2.41-0.892-3.303,0.34c-0.126,0.175-0.249,0.375-0.368,0.601L58.635,53.977z"/>
	<path fill="#1EAF92" d="M56.686,47.416c0.088-0.571,0.244-1.122,0.457-1.599c0.568-1.272,1.5-2.059,2.855-1.454
		c0.615,0.274,1.008,0.784,1.059,1.467c0.167-0.043,0.367-0.072,0.58-0.065l2.56,0.067l-0.396,0.888l-2.16-0.058
		c-0.476-0.016-0.689,0.155-0.932,0.696l-0.322,0.724l2.341,1.044l-0.366,0.82L56.686,47.416z M59.606,47.733l0.414-0.928
		c0.358-0.805,0.169-1.372-0.406-1.629c-0.862-0.384-1.365,0.258-1.694,0.997c-0.104,0.229-0.181,0.471-0.243,0.699L59.606,47.733z"
		/>
	<path fill="#1EAF92" d="M65.502,40.541l-0.889,3.888l-6.229-1.424l0.86-3.765l0.834,0.19l-0.66,2.887l1.86,0.426l0.567-2.483
		l0.833,0.19l-0.567,2.483l1.869,0.427l0.688-3.01L65.502,40.541z"/>
</g>
</svg>
